<svg xmlns="http://www.w3.org/2000/svg" version="1.0" width="1024.000000pt" height="1024.000000pt" viewBox="0 0 1024.000000 1024.000000" preserveAspectRatio="xMidYMid meet">

<g transform="translate(0.000000,1024.000000) scale(0.100000,-0.100000)" fill="#ffffff" stroke="none">
<path d="M4830 7509 c-192 -20 -377 -70 -578 -156 -320 -136 -627 -374 -833 -644 -110 -145 -236 -360 -223 -381 3 -4 51 -8 107 -8 l103 0 36 73 c59 118 155 244 288 377 202 201 382 322 624 419 284 113 492 150 789 137 297 -12 502 -62 744 -181 328 -159 577 -392 788 -732 l57 -93 87 0 c115 0 119 4 85 71 -69 137 -222 360 -326 476 -323 360 -789 596 -1267 643 -121 12 -359 11 -481 -1z" fill="#ffffff"/>
<path d="M8015 7071 c-36 -16 -95 -72 -95 -89 0 -4 -282 -5 -626 -4 l-626 4 39 -54 c22 -29 45 -63 52 -75 l12 -23 570 0 570 0 37 -39 c82 -86 201 -70 251 33 45 93 8 206 -82 246 -52 24 -52 24 -102 1z m95 -145 c31 -38 -9 -89 -54 -68 -21 9 -26 19 -26 47 0 33 2 35 34 35 18 0 39 -7 46 -14z" fill="#ffffff"/>
<path d="M4995 6911 c-92 -41 -144 -126 -145 -232 0 -145 113 -262 255 -262 116 0 229 106 243 229 11 99 -61 223 -153 265 -53 24 -147 24 -200 0z m186 -150 c35 -35 39 -44 39 -91 0 -45 -4 -56 -30 -80 -66 -62 -163 -42 -207 44 -21 41 -9 89 33 131 29 30 41 35 81 35 39 0 50 -5 84 -39z" fill="#ffffff"/>
<path d="M2647 6880 c-56 -14 -90 -34 -129 -78 -46 -51 -63 -101 -62 -188 0 -81 26 -138 90 -194 53 -46 99 -63 174 -64 110 0 218 71 256 170 21 56 15 153 -14 210 -54 106 -200 172 -315 144z m133 -139 c38 -20 80 -88 80 -129 0 -59 -70 -122 -136 -122 -15 0 -47 9 -71 21 -55 27 -77 66 -70 128 4 37 13 52 46 83 47 44 94 50 151 19z" fill="#ffffff"/>
<path d="M4153 6690 c-25 -10 -38 -48 -29 -84 7 -30 54 -50 96 -41 39 9 67 63 50 96 -19 34 -72 47 -117 29z" fill="#ffffff"/>
<path d="M4530 6688 c-20 -11 -26 -22 -28 -60 -3 -41 0 -49 22 -64 49 -32 136 11 136 66 0 50 -79 84 -130 58z" fill="#ffffff"/>
<path d="M5612 6684 c-19 -13 -22 -24 -20 -56 6 -81 92 -103 125 -32 20 41 7 79 -33 94 -35 14 -46 13 -72 -6z" fill="#ffffff"/>
<path d="M5927 6689 c-47 -27 -39 -108 14 -129 61 -26 127 37 101 96 -18 38 -77 55 -115 33z" fill="#ffffff"/>
<path d="M6950 6615 c0 -4 35 -77 77 -161 56 -112 81 -153 92 -149 8 3 255 8 549 10 294 3 537 7 540 9 2 3 1 66 -3 140 -6 113 -10 136 -24 140 -28 8 -1231 18 -1231 11z" fill="#ffffff"/>
<path d="M1940 5600 l0 -540 3159 0 3160 0 -6 533 c-3 292 -6 533 -7 533 0 1 -1420 4 -3153 8 l-3153 6 0 -540z m695 227 c-49 -50 -108 -111 -132 -135 -43 -42 -52 -65 -33 -77 8 -5 97 -107 228 -260 14 -16 32 -38 40 -47 14 -17 10 -18 -64 -18 -78 1 -79 1 -104 34 -14 18 -63 77 -108 130 -76 87 -112 115 -112 86 0 -6 -18 -30 -40 -54 -39 -43 -40 -44 -40 -119 l0 -76 -60 0 -60 1 0 314 0 314 65 0 64 0 -2 -137 -2 -138 53 50 c30 28 94 89 144 137 l89 87 77 3 c42 2 79 2 81 0 3 -1 -35 -44 -84 -95z m820 -25 c-3 -3 -88 -5 -190 -4 l-185 2 0 -65 0 -65 158 0 157 0 3 -60 3 -60 -160 0 -161 0 0 -65 0 -65 200 0 200 0 0 -66 0 -65 -266 3 -266 3 3 312 4 313 250 2 250 3 3 -59 c2 -32 1 -61 -3 -64z m812 51 c-14 -27 -30 -69 -37 -93 -6 -25 -20 -57 -31 -72 -10 -15 -30 -56 -43 -90 -31 -81 -81 -201 -107 -255 -20 -42 -22 -43 -67 -43 -45 0 -48 2 -63 38 -10 20 -39 87 -67 147 -89 196 -192 429 -192 433 0 1 29 2 65 0 l65 -3 56 -120 c31 -66 64 -143 74 -171 10 -28 27 -68 38 -89 l19 -39 31 55 c18 30 48 99 68 154 20 55 45 117 55 137 11 21 19 46 19 57 0 18 8 20 68 23 45 2 68 -1 70 -9 2 -6 -8 -33 -21 -60z m863 -72 c72 -76 144 -156 160 -178 55 -75 57 -71 65 133 l7 184 59 0 59 0 0 -315 c0 -258 -2 -315 -13 -315 -25 0 -91 56 -219 187 -140 144 -194 193 -208 193 -6 0 -10 -67 -10 -167 0 -93 -3 -177 -6 -188 -4 -17 -15 -20 -65 -22 l-59 -2 0 252 c0 138 3 281 6 317 l6 65 44 -4 c42 -3 50 -9 174 -140z m-490 -178 l0 -313 -60 0 -60 0 0 315 0 316 60 -3 60 -2 0 -313z m1817 282 c-3 -20 -26 -60 -54 -96 -26 -33 -78 -99 -115 -146 -36 -47 -84 -104 -106 -127 -22 -22 -45 -51 -51 -62 -9 -20 -7 -22 27 -28 20 -3 97 -6 170 -6 l132 0 0 -62 0 -63 -282 3 c-156 2 -284 5 -286 6 -7 7 53 102 109 172 151 189 234 296 237 304 3 9 -60 12 -276 15 l-32 0 0 63 0 62 266 0 267 0 -6 -35z m356 -86 l-1 -116 105 -7 c59 -3 133 -6 165 -6 l59 0 -3 125 -3 125 61 0 62 0 6 -97 c4 -54 4 -163 2 -243 -3 -80 -5 -176 -5 -215 l-1 -70 -59 -2 -58 -2 -7 126 c-3 70 -9 129 -12 132 -3 3 -75 8 -160 9 l-154 4 0 -136 0 -136 -61 0 -62 0 7 61 c3 34 6 176 6 316 l0 254 58 -3 57 -3 -2 -116z m820 54 c4 -38 7 -126 7 -196 0 -109 3 -134 21 -168 24 -48 66 -69 140 -69 109 0 139 49 139 223 0 61 3 149 7 195 l6 82 59 0 60 0 -4 -222 c-3 -251 -3 -250 -90 -335 -107 -105 -289 -96 -393 18 -66 74 -70 89 -70 326 l0 213 56 0 56 0 6 -67z" fill="#ffffff"/>
<path d="M3208 4881 c-36 -3 -69 -9 -72 -12 -9 -9 26 -104 72 -196 203 -402 448 -665 847 -911 261 -160 574 -258 885 -276 164 -10 441 9 578 40 579 128 1054 490 1350 1029 52 94 152 311 152 329 0 3 -49 6 -109 6 l-109 0 -7 -27 c-3 -16 -26 -70 -50 -121 -237 -500 -698 -878 -1230 -1008 -570 -139 -1120 -12 -1610 371 -96 75 -283 265 -348 354 -64 87 -154 248 -194 345 -36 91 -31 89 -155 77z" fill="#ffffff"/>
<path d="M6039 4850 c-39 -11 -74 -37 -89 -65 l-13 -25 -1193 -2 c-656 -2 -1196 -6 -1200 -11 -4 -4 -1 -33 7 -65 l15 -57 1173 0 1173 0 27 -40 c48 -72 141 -96 220 -55 108 54 129 174 48 267 -49 55 -104 73 -168 53z m90 -136 c27 -34 27 -59 -1 -78 -31 -22 -54 -20 -72 6 -21 29 -20 57 1 80 23 25 48 22 72 -8z" fill="#ffffff"/>
<path d="M2454 4803 l-441 -3 -6 -36 c-3 -20 -4 -49 -1 -64 l6 -27 505 -8 c277 -4 506 -5 508 -3 9 8 -15 72 -40 110 -22 32 -30 38 -58 36 -17 -2 -231 -4 -473 -5z" fill="#ffffff"/>
<path d="M7412 4779 c-47 -18 -115 -75 -138 -115 -31 -52 -39 -116 -25 -186 15 -71 56 -129 118 -165 42 -24 58 -28 123 -27 134 2 194 32 247 121 21 37 26 57 26 111 -1 79 -19 127 -71 184 -51 57 -121 88 -197 87 -33 0 -71 -4 -83 -10z m177 -165 c47 -50 58 -83 41 -123 -20 -48 -54 -73 -108 -79 -59 -5 -105 15 -132 61 -35 56 -23 114 33 157 63 49 111 45 166 -16z" fill="#ffffff"/>
<path d="M5445 4501 c-23 -10 -54 -33 -69 -52 l-29 -34 -803 -5 -803 -5 46 -62 46 -63 556 0 c306 0 647 -3 758 -7 l202 -6 12 -29 c32 -77 146 -110 229 -66 81 43 117 148 77 224 -50 96 -145 141 -222 105z m105 -131 c24 -24 26 -57 3 -82 -22 -24 -52 -23 -80 4 -29 27 -29 62 -1 82 30 21 54 20 78 -4z" fill="#ffffff"/>
<path d="M2085 4431 l-80 -6 0 -52 c1 -29 4 -56 9 -60 4 -4 282 -10 617 -11 l610 -4 -36 71 -35 71 -503 -2 c-276 -1 -538 -4 -582 -7z" fill="#ffffff"/>
</g>
</svg>